<?xml version="1.0" ?><!DOCTYPE svg  PUBLIC '-//W3C//DTD SVG 1.1//EN'  'http://www.w3.org/Graphics/SVG/1.1/DTD/svg11.dtd'><svg enable-background="new 0 0 128 128" id="Слой_1" version="1.1" viewBox="0 0 128 128" xml:space="preserve" xmlns="http://www.w3.org/2000/svg" xmlns:xlink="http://www.w3.org/1999/xlink"><g><g><path d="M44.7,93.1l-9.8-9.8c-2-2-2-5.1,0-7.1L82,29.1L98.9,46L51.8,93.1C49.8,95,46.7,95,44.7,93.1z" fill="#FFFFFF"/></g><g><path d="M44.7,93.1l-9.8-9.8c-2-2-2-5.1,0-7.1l21.8-21.8l16.9,16.9L51.8,93.1C49.8,95,46.7,95,44.7,93.1z" fill="#90D3EA"/></g><g><path d="M118.3,23.3L104.7,9.7c-0.9-0.9-2.3-0.9-3.2,0l-1,1c-0.9,0.9-0.9,2.3,0,3.2l2.6,2.6L60.9,58.7l8.4,8.4    l42.2-42.2l2.6,2.6c0.9,0.9,2.3,0.9,3.2,0l1-1C119.2,25.6,119.2,24.2,118.3,23.3z" fill="#F0F1EE"/></g><g><path d="M118.3,23.3L104.7,9.7c-0.9-0.9-2.3-0.9-3.2,0l-1,1c-0.9,0.9-0.9,2.3,0,3.2l2.6,2.6L60.9,58.7l8.4,8.4    l42.2-42.2l2.6,2.6c0.9,0.9,2.3,0.9,3.2,0l1-1C119.2,25.6,119.2,24.2,118.3,23.3z" fill="#FFFFFF"/></g><g><path d="M73.6,72.6c-0.3,0-0.6-0.1-0.9-0.4L55.8,55.3c-0.5-0.5-0.5-1.3,0-1.8s1.3-0.5,1.8,0l16.9,16.9    c0.5,0.5,0.5,1.3,0,1.8C74.2,72.4,73.9,72.6,73.6,72.6z" fill="#502D4B"/></g><g><path d="M52.5,68.3c-0.3,0-0.6-0.1-0.9-0.4l-4.2-4.2c-0.5-0.5-0.5-1.3,0-1.8s1.3-0.5,1.8,0l4.2,4.2    c0.5,0.5,0.5,1.3,0,1.8C53.1,68.2,52.8,68.3,52.5,68.3z" fill="#502D4B"/></g><g><path d="M44,76.8c-0.3,0-0.6-0.1-0.9-0.4l-4.2-4.2c-0.5-0.5-0.5-1.3,0-1.8s1.3-0.5,1.8,0l4.2,4.2    c0.5,0.5,0.5,1.3,0,1.8C44.7,76.7,44.4,76.8,44,76.8z" fill="#502D4B"/></g><g><path d="M69.3,68.3c-0.3,0-0.6-0.1-0.9-0.4L60,59.5c-0.5-0.5-0.5-1.3,0-1.8l42.2-42.2c0.5-0.5,1.3-0.5,1.8,0    l8.4,8.4c0.5,0.5,0.5,1.3,0,1.8L70.2,68C70,68.2,69.7,68.3,69.3,68.3z M62.7,58.7l6.7,6.7l40.4-40.4l-6.7-6.7L62.7,58.7z" fill="#502D4B"/></g><g><path d="M105.5,44.2L83.8,22.5c-1-1-2.6-1-3.5,0l-0.7,0.7c-1,1-1,2.6,0,3.5l21.8,21.8c1,1,2.6,1,3.5,0l0.7-0.7    C106.5,46.8,106.5,45.2,105.5,44.2z" fill="#FFFFFF"/></g><g><path d="M103.1,50.4c-1,0-1.9-0.4-2.7-1.1L78.7,27.6c-1.5-1.5-1.5-3.8,0-5.3l0.7-0.7c1.4-1.4,3.9-1.4,5.3,0    l21.8,21.8c1.5,1.5,1.5,3.8,0,5.3l-0.7,0.7C105,50.1,104.1,50.4,103.1,50.4z M82,23c-0.3,0-0.6,0.1-0.9,0.4L80.4,24    c-0.5,0.5-0.5,1.3,0,1.8l21.8,21.8c0.5,0.5,1.3,0.5,1.8,0l0.7-0.7c0.5-0.5,0.5-1.3,0-1.8L82.9,23.4C82.6,23.1,82.3,23,82,23z" fill="#502D4B"/></g><rect fill="#502D4B" height="3.7" opacity="0.2" transform="matrix(-0.7071 -0.7071 0.7071 -0.7071 165.3985 112.5097)" width="11.9" x="100" y="20.2"/><path d="M118.2,23.2L104.8,9.8c-1-1-2.6-1-3.5,0l-0.7,0.7c-1,1-1,2.6,0,3.5L114,27.4c1,1,2.6,1,3.5,0l0.7-0.7   C119.2,25.7,119.2,24.1,118.2,23.2z" fill="#502D4B"/><g><path d="M115.7,29.4c-1,0-1.9-0.4-2.7-1.1L99.7,14.9c-0.7-0.7-1.1-1.6-1.1-2.7s0.4-1.9,1.1-2.7l0.7-0.7    c1.4-1.4,3.9-1.4,5.3,0l13.3,13.3c0.7,0.7,1.1,1.6,1.1,2.7s-0.4,1.9-1.1,2.7l-0.7,0.7C117.7,29,116.7,29.4,115.7,29.4z     M103.1,10.3c-0.3,0-0.6,0.1-0.9,0.4l-0.7,0.7c-0.2,0.2-0.4,0.6-0.4,0.9c0,0.3,0.1,0.6,0.4,0.9l13.3,13.3c0.5,0.5,1.3,0.5,1.8,0    l0.7-0.7c0.2-0.2,0.4-0.6,0.4-0.9c0-0.3-0.1-0.6-0.4-0.9L104,10.7C103.7,10.5,103.4,10.3,103.1,10.3z" fill="#502D4B"/></g><g><path d="M31.7,97L31,96.3c-1-1-1-2.6,0-3.5l6.7-6.7l4.2,4.2L35.3,97C34.3,97.9,32.7,97.9,31.7,97z" fill="#898288"/></g><rect fill="#502D4B" height="3.7" opacity="0.2" transform="matrix(-0.7071 -0.7071 0.7071 -0.7071 2.4972 179.985)" width="6" x="35.5" y="87.6"/><g><path d="M33.5,98.9c-1,0-1.9-0.4-2.7-1.1l-0.7-0.7c-1.5-1.5-1.5-3.8,0-5.3l6.7-6.7c0.5-0.5,1.3-0.5,1.8,0l4.2,4.2    c0.2,0.2,0.4,0.6,0.4,0.9s-0.1,0.6-0.4,0.9l-6.7,6.7C35.4,98.5,34.5,98.9,33.5,98.9z M37.7,87.8l-5.8,5.8c-0.5,0.5-0.5,1.3,0,1.8    l0.7,0.7c0.5,0.5,1.3,0.5,1.8,0l5.8-5.8L37.7,87.8z" fill="#502D4B"/></g><g><path d="M9,120.2c-0.3,0-0.6-0.1-0.9-0.4c-0.5-0.5-0.5-1.3,0-1.8l22.4-22.4c0.5-0.5,1.3-0.5,1.8,0s0.5,1.3,0,1.8    L9.9,119.9C9.6,120.1,9.3,120.2,9,120.2z" fill="#502D4B"/></g><g opacity="0.5"><path d="M35.6,84c-2.3-2.3-2.3-6.1,0-8.4L82,29.1L98.9,46C78.7,47.9,57.7,61.9,35.6,84z" fill="#FFFFFF"/></g><g><path d="M48.3,95.8c-1.7,0-3.2-0.6-4.4-1.8L34,84.2c-1.2-1.2-1.8-2.8-1.8-4.4s0.6-3.2,1.8-4.4l47.1-47.1    c0.5-0.5,1.3-0.5,1.8,0l16.9,16.9c0.5,0.5,0.5,1.3,0,1.8L52.7,94C51.5,95.1,49.9,95.8,48.3,95.8z M82,30.9L35.8,77.1    c-1.5,1.5-1.5,3.8,0,5.3l9.8,9.8c1.4,1.4,3.9,1.4,5.3,0L97.1,46L82,30.9z" fill="#502D4B"/></g></g></svg>